<svg xmlns="http://www.w3.org/2000/svg" fill="none" viewBox="0 0 40 41" role="img"><g clip-path="url(#a)"><path fill="#fabe1f" fill-rule="evenodd" d="m22.462 2.883-5.046 3.415-5.91-1.484-2.074 5.729-5.653 2.274 1.688 5.854-3.236 5.162 4.807 3.744.415 6.078 6.09.204 3.91 4.673 5.045-3.415 5.91 1.483 2.074-5.728 5.653-2.274-1.688-5.854 3.236-5.162-4.807-3.744-.415-6.079-6.09-.203-3.909-4.673Z" clip-rule="evenodd"/><path fill="#0B0D0E" d="m10.467 18.223.178-1.266 2.7-1.66c.178-.11.333-.216.463-.316.133-.102.239-.21.317-.326a.91.91 0 0 0 .154-.402.817.817 0 0 0-.048-.442.705.705 0 0 0-.253-.313.921.921 0 0 0-.416-.159.92.92 0 0 0-.445.038.688.688 0 0 0-.325.248.98.98 0 0 0-.166.448l-1.671-.235c.064-.456.221-.834.472-1.134.251-.3.576-.513.974-.638s.849-.152 1.35-.081c.52.073.958.22 1.314.44.359.217.62.491.785.82.167.329.222.695.165 1.098a1.93 1.93 0 0 1-.26.722c-.137.23-.36.475-.67.735-.31.26-.741.56-1.293.902l-.678.421-.006.038 2.532.356-.197 1.405-4.976-.699Zm9.273 1.484c-.588-.085-1.077-.292-1.468-.622-.39-.33-.666-.766-.826-1.308-.16-.54-.19-1.167-.088-1.877.102-.713.303-1.302.603-1.768.302-.465.685-.798 1.148-.998.464-.199.991-.257 1.58-.174.588.082 1.078.285 1.47.606.392.32.669.745.83 1.276.163.53.193 1.151.091 1.862-.1.715-.302 1.31-.606 1.787-.304.476-.689.818-1.155 1.028-.464.208-.99.271-1.579.188Zm.201-1.43c.304.042.576-.08.814-.37.241-.291.408-.777.502-1.46.063-.444.07-.815.02-1.11-.048-.295-.141-.521-.279-.678a.8.8 0 0 0-.509-.282c-.303-.042-.573.077-.808.358-.236.281-.402.755-.5 1.42-.066.454-.075.834-.028 1.14.048.303.14.536.277.697.138.161.309.256.511.285Zm8.105 1.177.047-.341c.04-.275.134-.52.285-.735.152-.215.353-.378.6-.487.248-.11.536-.14.863-.095.335.047.607.156.815.328.21.171.359.381.444.63.086.249.109.512.07.79l-.048.343c-.039.274-.134.519-.287.734-.151.216-.352.378-.601.487-.25.109-.54.14-.872.093-.331-.046-.6-.156-.809-.33a1.408 1.408 0 0 1-.44-.633 1.69 1.69 0 0 1-.067-.784Zm1.149-.187-.048.342a.801.801 0 0 0 .038.37c.045.125.15.199.318.222.175.025.298-.016.369-.122a.804.804 0 0 0 .136-.349l.048-.342a.9.9 0 0 0-.028-.378c-.036-.126-.145-.201-.326-.227-.167-.023-.29.02-.367.13a.82.82 0 0 0-.14.354Zm-4.021-3.999.048-.341c.04-.279.135-.526.288-.741.155-.215.356-.376.604-.483.247-.107.532-.138.855-.093.336.047.607.156.816.328.21.171.358.381.444.63.085.249.108.512.07.79l-.049.343c-.039.278-.135.524-.287.737-.15.213-.35.373-.6.477-.25.105-.54.134-.87.088-.332-.047-.602-.156-.81-.327a1.391 1.391 0 0 1-.441-.627 1.67 1.67 0 0 1-.068-.78Zm1.162-.185-.048.342a.781.781 0 0 0 .038.373c.043.122.145.195.305.217.175.025.298-.016.37-.122a.803.803 0 0 0 .135-.349l.048-.342a.9.9 0 0 0-.027-.378c-.036-.126-.145-.201-.327-.227-.166-.023-.287.022-.36.137a.871.871 0 0 0-.134.349Zm-1.316 5.185 5.367-5.855.899.126-5.367 5.856-.9-.127Zm-9.083 4.508c-.101.721-.327 1.31-.678 1.767-.35.454-.781.775-1.294.963a3.38 3.38 0 0 1-1.648.156 3.37 3.37 0 0 1-1.548-.608 2.88 2.88 0 0 1-.975-1.286c-.208-.535-.262-1.161-.162-1.878.102-.722.326-1.31.674-1.765.35-.456.781-.778 1.291-.964a3.372 3.372 0 0 1 1.656-.158c.586.082 1.1.285 1.54.607.442.32.768.748.98 1.283.21.534.265 1.16.164 1.883Zm-1.81-.255c.054-.388.048-.722-.018-1.003a1.253 1.253 0 0 0-.367-.671c-.179-.167-.414-.271-.705-.312a1.273 1.273 0 0 0-.767.105 1.28 1.28 0 0 0-.537.544c-.14.252-.236.572-.29.96-.055.388-.05.723.013 1.006a1.3 1.3 0 0 0 .367.67c.182.166.418.27.709.31.291.041.546.007.763-.102.22-.111.4-.293.538-.544.141-.254.239-.575.294-.963Zm2.882 3.71.91-6.482 4.558.64-.2 1.419-2.797-.393-.157 1.114 2.52.354-.2 1.418-2.519-.355-.356 2.532-1.76-.247Zm5.917.832.911-6.482 4.558.64-.2 1.418-2.797-.393-.157 1.114 2.52.354-.2 1.418-2.52-.354-.355 2.532-1.76-.247Z"/></g><defs><clipPath id="a"><path fill="#fff" d="M0 0h38.915v40.415H0z" transform="translate(.5 .5)"/></clipPath></defs></svg>