<svg xmlns="http://www.w3.org/2000/svg" aria-label="360Learning" viewBox="0 0 380 88" fill="none" role="img"><linearGradient id="360-learning-a" gradientUnits="userSpaceOnUse" x1="1.53276" x2="86.5134" y1="55.4243" y2="32.6652"><stop offset="0" stop-color="#7b7b87"/><stop offset=".1358" stop-color="#7b7b87"/><stop offset=".1543" stop-color="#7b7b87"/><stop offset=".2817" stop-color="#7b7b87"/><stop offset=".3825" stop-color="#7b7b87"/><stop offset=".4437" stop-color="#7b7b87"/><stop offset=".6927" stop-color="#7b7b87"/><stop offset=".8244" stop-color="#7b7b87"/><stop offset=".9399" stop-color="#7b7b87"/><stop offset="1" stop-color="#7b7b87"/></linearGradient><linearGradient id="360-learning-b" gradientUnits="userSpaceOnUse" x1="11.7199" x2="12.1106" y1="61.0064" y2="22.0161"><stop offset=".01" stop-color="#7b7b87" stop-opacity="0"/><stop offset=".27" stop-color="#7b7b87" stop-opacity=".33"/><stop offset=".74" stop-color="#7b7b87"/></linearGradient><linearGradient id="360-learning-c" gradientUnits="userSpaceOnUse" x1="75.1866" x2="51.9015" y1="60.9248" y2="84.2014"><stop offset=".17" stop-color="#7b7b87" stop-opacity="0"/><stop offset=".38" stop-color="#7b7b87" stop-opacity=".29"/><stop offset=".83" stop-color="#7b7b87"/></linearGradient><linearGradient id="360-learning-d" gradientUnits="userSpaceOnUse" x1="42.009" x2="74.5322" y1="10.2" y2="15.9933"><stop offset=".25" stop-color="#7b7b87" stop-opacity="0"/><stop offset=".34" stop-color="#7b7b87" stop-opacity=".2"/><stop offset=".57" stop-color="#7b7b87" stop-opacity=".63"/><stop offset=".74" stop-color="#7b7b87" stop-opacity=".9"/><stop offset=".83" stop-color="#7b7b87"/></linearGradient><path d="m46.1852.0523875c-24.2348-1.1732375-44.85394 17.5008125-46.1243107 41.8455125-1.2703693 24.3448 17.4920107 44.8765 41.8246107 46.0497 24.3325 1.1732 44.8539-17.5008 46.0265-41.7478 1.2704-24.2469-17.492-44.8764-41.7268-46.1474125zm24.4302 51.7203125c-3.8111 12.5146-12.4105 23.6603-18.8601 25.2247-6.4496 1.5643-19.0556-4.5952-28.0459-13.9811-8.9904-9.386-14.36502-22.0961-12.2152-28.8422 1.8567-5.8662 13.1924-14.3722 25.8961-17.403 12.7037-3.0309 26.5801-.6844 30.9776 3.7152 4.7883 4.693 5.9609 18.6741 2.2475 31.2864z" fill="url(#360-learning-a)"/><path d="m21.4621 60.3765c-3.0294-3.6175-5.6679-7.7239-7.6223-12.0257-.5863-1.271-1.0749-2.5421-1.4658-3.9108 0 0 0 0 0-.0978-1.2704-3.9108-1.5635-7.5283-.7818-10.2658.9772-3.0309 4.1043-5.7685 4.0066-5.7685-6.54731 6.3551-12.50829 17.2075-13.58322 28.6466z" fill="url(#360-learning-b)"/><path d="m69.4432 55.5858v-.3911c-1.8567 5.2796-9.1858 19.8473-17.883 21.9005-2.2475.2933-4.4951.0977-6.645-.4889l1.1727.2933c8.5994 2.6398 19.3487 2.0532 29.9026-2.6397z" fill="url(#360-learning-c)"/><path d="m53.7097 1.3233-12.7038 14.6655c6.1565-.9777 12.4106-.8799 18.4693.3911h.0977c4.1043.9777 7.4268 2.2487 9.2835 4.3996 1.3681 1.6621 2.3453 3.7153 2.8339 5.8662-3.127-10.1681-9.4789-19.06512-17.9806-25.3224z" fill="url(#360-learning-d)"/><g fill="#7b7b87"><path d="m199.607 57.3458v-26.5934c0-1.5643.684-2.2487 2.052-2.2487h.782c1.466 0 2.15.6844 2.15 2.2487v24.8335h13.681c1.465 0 2.345.7822 2.345 2.151v.1955c.098 1.0755-.782 2.151-1.857 2.151-.195 0-.293 0-.488 0h-16.027c-1.368.0977-2.638-.9777-2.638-2.4443 0-.0978 0-.1955 0-.2933z"/><path d="m235.08 56.9545c4.104 0 6.059-1.7598 7.329-3.9108.098-.0977 2.541.2933 2.541 2.3465s-3.616 5.2796-9.968 5.2796c-7.427 0-12.313-4.8885-12.313-12.2213 0-7.0394 5.082-12.319 11.922-12.319 6.743 0 11.238 4.7907 11.238 11.7324v.3911c0 .9777-.293 1.3688-1.466 1.3688h-17.199c.196 4.3019 3.714 7.5283 7.916 7.3327zm6.059-10.4614c-.196-4.0085-2.737-6.6483-6.646-6.6483-3.811 0-6.938 2.8353-7.426 6.6483z"/><path d="m265.178 45.6133c0-3.5197-2.053-5.4751-5.766-5.4751-2.834-.0978-5.472 1.4666-6.743 4.0086 0 0-2.931 0-2.931-2.3465s3.42-5.5729 9.967-5.5729 10.163 3.422 10.163 9.2882v14.2744c0 .1955-.879.5866-1.759.5866-1.661 0-2.931-.8799-2.931-3.813-1.955 2.6398-5.082 4.2041-8.404 4.1063-4.984 0-7.916-2.6398-7.916-6.6483 0-5.3774 5.179-7.7239 15.636-7.9194h.586zm0 5.2796v-1.7598h-1.271c-6.84.1955-10.26 1.4665-10.26 4.6929 0 2.0532 1.661 3.422 4.397 3.422 4.104 0 7.134-2.6398 7.134-6.3551z"/><path d="m286.286 36.2274c2.443 0 3.811 1.1733 3.811 3.1287.098 1.0754-.488 2.0531-1.466 2.4442-.879-.6844-1.856-.9777-2.931-.9777-3.811 0-5.277 3.7153-5.277 9.0926v8.2127c0 1.7599-.977 2.2487-2.15 2.2487h-.489c-1.27 0-2.15-.4888-2.15-2.2487v-21.1183c.489-.3911 1.075-.5866 1.759-.4889 1.466 0 2.932.7822 3.03 4.1064.977-2.9331 2.931-4.3997 5.863-4.3997z"/><path d="m306.221 36.2274c6.156 0 8.99 4.2041 8.99 9.9725v11.8302c0 1.7599-.977 2.2487-2.149 2.2487h-.489c-1.27 0-2.15-.4888-2.15-2.2487v-11.2435c0-3.9108-1.954-6.3551-5.375-6.3551-2.834-.0977-5.374 1.5643-6.547 4.1064v13.59c0 1.7598-.879 2.2487-2.15 2.2487h-.488c-1.271 0-2.15-.4889-2.15-2.2487v-21.1183c.488-.3911 1.075-.5866 1.759-.4889 1.368 0 2.834.7822 3.029 3.813 1.661-2.6397 4.593-4.2041 7.72-4.1063z"/><path d="m320.683 29.0902c0-1.7599 1.075-2.7376 2.932-2.7376 1.368-.1955 2.638.7822 2.834 2.151v.5866c0 1.7598-.978 2.6398-2.834 2.6398-1.857 0-2.932-.9777-2.932-2.6398zm.391 28.9399v-19.1629c0-1.7599.879-2.3465 2.15-2.3465h.488c1.271 0 2.15.4888 2.15 2.3465v19.1629c0 1.7598-.879 2.2487-2.15 2.2487h-.488c-1.173 0-2.15-.4889-2.15-2.2487z"/><path d="m344.625 36.2274c6.156 0 8.99 4.2041 8.99 9.9725v11.8302c0 1.7599-.879 2.2487-2.15 2.2487h-.488c-1.271 0-2.15-.4888-2.15-2.2487v-11.2435c0-3.9108-1.955-6.3551-5.375-6.3551-2.834-.0977-5.374 1.5643-6.547 4.1064v13.59c0 1.7598-.88 2.2487-2.15 2.2487h-.586c-1.271 0-2.15-.4889-2.15-2.2487v-21.1183c.488-.3911 1.075-.5866 1.759-.4889 1.368 0 2.834.7822 3.029 3.813 1.759-2.6397 4.691-4.2041 7.818-4.1063z"/><path d="m374.723 35.3473c.489-1.0755 1.564-1.8577 2.736-1.8577 1.173 0 2.248.88 2.443 2.0532l-3.909 4.1063c1.271 1.4666 1.955 3.3242 1.955 5.2796 0 4.8885-4.202 8.506-10.065 8.506-.294 0-.587 0-.88 0-.195.2933-.293.5866-.195.8799 0 1.4666 2.247 1.6621 6.352 2.6398 3.322.8799 6.84 2.542 6.84 6.3551 0 4.3996-4.495 7.1372-12.215 7.1372s-11.531-2.0532-11.531-6.4528c0-3.422 3.225-5.6707 7.427-6.4529-.684-.5866-.978-1.3687-.978-2.1509 0-.9777.489-1.9554 1.368-2.542-3.713-1.1733-6.156-4.1064-6.156-7.8216 0-4.8885 4.202-8.7993 9.968-8.7993 1.954 0 3.908.4888 5.57 1.4665zm-13.876 28.451c0 2.0532 2.345 3.2264 7.036 3.2264 4.69 0 7.426-1.271 7.426-3.6175 0-2.3464-3.713-2.8353-7.231-3.7152-3.909.1955-7.231 1.5643-7.231 4.1063zm12.606-18.8696c.097-2.8353-2.15-5.2796-4.984-5.2796-.196 0-.293 0-.489 0-2.931.0978-5.179 2.6398-5.081 5.5729s2.638 5.1818 5.57 5.0841c2.736-.1956 4.984-2.5421 4.984-5.3774z"/><path d="m129.052 43.2667c3.909 1.271 6.059 4.1063 6.059 8.0171 0 5.964-4.788 9.4837-12.997 9.4837-7.622 0-12.019-3.8131-12.019-7.1372 0-3.6175 4.202-3.7153 4.202-3.422.977 3.3242 3.908 4.9863 7.719 4.9863 3.812 0 6.255-1.6621 6.255-4.4974 0-2.9331-1.857-4.3019-5.57-4.3019h-1.662c-2.345 0-3.322-.8799-3.322-2.4443v-.2933c0-1.6621 1.172-2.4442 3.225-2.4442h2.345c2.931 0 4.495-1.3688 4.495-3.6175 0-2.4443-2.15-4.0086-5.766-4.0086-4.104 0-6.058 2.151-7.035 4.4974 0 .2934-4.105.1956-4.105-3.3241 0-3.3242 4.398-6.6484 11.238-6.6484 7.916 0 12.411 3.0309 12.411 8.6038-.098 3.3241-1.955 5.4751-5.473 6.5506z"/><path d="m154.069 40.2358c6.254 0 10.554 3.4219 10.554 9.3859v.2933c0 6.4528-5.081 10.9503-12.41 10.9503-8.6 0-13.681-5.8662-13.681-14.7633v-2.8353c0-9.386 5.374-15.1544 14.169-15.1544 6.938 0 10.652 2.9331 10.652 6.0617 0 2.7376-3.42 3.3242-3.518 3.1287-1.466-2.3465-4.007-3.7153-6.743-3.5197-4.984 0-7.622 3.1286-7.622 9.1903v.1956c2.443-1.9554 5.472-3.0309 8.599-2.9331zm-2.052 15.2521c3.323 0 5.766-2.0532 5.766-5.084v-.1956c0-3.1286-2.052-4.8885-5.668-4.8885-2.345.0978-4.593 1.0755-6.352 2.6398.195 4.693 2.443 7.5283 6.254 7.5283z"/><path d="m167.848 46.102v-3.1287c0-9.0926 5.277-14.861 13.778-14.861 8.502 0 13.681 5.6707 13.681 14.7633v3.0308c0 9.0927-5.179 14.7633-13.778 14.7633-8.6 0-13.681-5.4751-13.681-14.5677zm20.326.3911v-4.0086c0-5.5729-2.346-8.6038-6.645-8.6038-4.3 0-6.548 2.9331-6.548 8.6038v4.0086c0 5.5729 2.346 8.5059 6.548 8.5059s6.645-2.933 6.645-8.5059z"/></g></svg>