<svg xmlns="http://www.w3.org/2000/svg" aria-label="BambooHR" viewBox="0 0 739.36 112.79" role="img"><path d="m734.23 46.23c-.49.41-1.09.65-1.81.72l2.77 4.3h-1.61l-2.63-4.19h-1.59v4.19h-1.5v-9.74h3.74c1.15 0 2 .23 2.55.69s.83 1.16.83 2.09c0 .88-.24 1.52-.73 1.93zm-3.32-.39c.34 0 .66-.01.96-.03s.57-.08.81-.19.42-.26.56-.48c.14-.21.21-.52.21-.9 0-.33-.06-.59-.19-.78-.12-.19-.29-.34-.48-.44-.2-.11-.43-.18-.69-.21-.26-.04-.51-.06-.76-.06h-1.99v3.1h1.57zm7.78-2.76c.44 1.01.66 2.1.66 3.27s-.22 2.31-.66 3.33-1.04 1.9-1.79 2.65-1.63 1.33-2.63 1.75c-1 .41-2.07.62-3.21.62s-2.21-.21-3.22-.62c-1.01-.42-1.89-1-2.65-1.75s-1.36-1.63-1.8-2.65-.66-2.13-.66-3.33.22-2.26.66-3.27 1.04-1.89 1.8-2.63 1.64-1.32 2.65-1.75c1.01-.42 2.08-.63 3.22-.63s2.2.21 3.21.63c1 .42 1.88 1.01 2.63 1.75.75.75 1.35 1.62 1.79 2.63zm-1.36 6.11c.34-.87.52-1.81.52-2.84s-.17-1.92-.52-2.78-.83-1.61-1.44-2.24-1.33-1.13-2.15-1.49c-.83-.37-1.72-.55-2.68-.55s-1.87.18-2.71.55c-.83.36-1.56.86-2.17 1.49s-1.09 1.38-1.44 2.24-.52 1.79-.52 2.78.17 1.97.52 2.84.83 1.63 1.44 2.26c.61.64 1.33 1.14 2.17 1.5.83.36 1.74.55 2.71.55s1.85-.18 2.68-.55c.83-.36 1.54-.87 2.15-1.5.61-.64 1.09-1.39 1.44-2.26zm-696.97-40.11c8.78 9.34 9.7 14.55 12.81 23.61l5.22 17.23s-5.15-.98-9.36-1.62c-4.89-.75-7.06-1.48-13.28-4.03-6.22-2.56-11.85-8.8-17.36-15.77-5.52-6.96-18.39-17.91-18.39-17.91s3.98.26 8.02 1.28c3.31.83 11.92 3.65 20.8 8.3 1.97 1.03 3.06 1.7 5 2.91 2.95 1.84 6.06 4.58 9.04 7.62 3.49 3.57 6.55 6.44 9.17 9.64-2.84-5.28-10.22-24.28-24.64-39.96-1.41-1.54 9.96 5.51 12.97 8.71zm349.39 25.58c20.45 0 38.12 17.79 38.12 38.49 0 22.29-16.93 39.64-39.3 39.64-20.31 0-38-14.42-38-37.57v-68.14h11.76v38.88l1.4-1.48c5.12-5.12 12.42-9.82 26.03-9.82zm-1.18 67.33c16.68 0 27.28-11.96 27.28-27.74 0-14.5-10.01-28.35-27.01-28.35s-27.54 12.91-27.54 28.64 12.5 27.45 27.27 27.45zm-285.45-67.33c20.46 0 38.12 17.79 38.12 38.49 0 22.29-16.93 39.64-39.3 39.64-20.3 0-38-14.42-38-37.57v-75.22h11.76v45.96l1.4-1.48c5.12-5.12 12.41-9.82 26.03-9.82zm-1.18 67.33c16.68 0 27.28-11.96 27.28-27.74 0-14.5-10.01-28.35-27.01-28.35s-27.54 12.91-27.54 28.64 12.5 27.45 27.27 27.45zm612.62-43.06c0 10.12-7.46 17.94-16.35 19.72l22.26 30.56h-10.88l-21.31-29.73h-9.43v29.73h-8.6v-71.14h20.4c17.59 0 23.91 11.06 23.91 20.86zm-35.72 12.62h12.83c9.33 0 13.99-5.73 13.99-12.62 0-8.34-4.97-12.93-14.09-12.93h-12.73zm-30.33-3.13v-30.35h8.59v71.14h-8.59v-32.86h-37.56v32.86h-8.59v-71.14h8.59v30.35zm-93.34-32.98c22.05 0 37.87 16.39 37.87 37.99s-15.98 38.3-37.87 38.3-37.86-16.7-37.86-38.3 16.57-37.99 37.86-37.99zm0 65.56c14.94 0 25.74-11.92 25.74-27.57s-10.2-27.42-25.74-27.42-25.73 11.62-25.73 27.42 12.13 27.57 25.73 27.57zm-83.2-65.56c22.03 0 37.86 16.39 37.86 37.99s-15.97 38.3-37.86 38.3-37.87-16.7-37.87-38.3 16.57-37.99 37.87-37.99zm0 65.56c14.93 0 25.73-11.92 25.73-27.57s-10.2-27.42-25.73-27.42-25.74 11.62-25.74 27.42 12.13 27.57 25.74 27.57zm-156.78-65.56c15.97 0 27.07 11.17 27.07 32.19v41.57h-11.69v-42.48c0-11.02-5.02-20.71-17.01-20.71-9.91 0-19.23 7.15-19.23 23.55v39.64h-11.83v-42.48c0-11.77-6.36-20.71-16.86-20.71-11.84 0-19.38 8.64-19.38 23.55v39.64h-11.69v-71.38h11.69v8.94h.3c4.73-6.4 11.97-11.32 21.15-11.32 11.09 0 20.11 6.4 23.08 14.75 3.55-7.16 12.13-14.75 24.41-14.75zm-102.98 12.66v-10.28h11.68v71.38h-11.68v-9.54h-.3c-5.18 6.26-13.9 12.07-25.89 12.07-19.22 0-36.38-15.05-36.38-38.3s15.97-37.99 37.13-37.99c12.87 0 20.4 6.85 25.29 12.66zm-24.56 53.21c13.32 0 25.59-11.33 25.59-27.42 0-16.99-11.39-28.16-25.3-28.16-17.75 0-26.18 14.01-26.18 27.71s8.43 27.87 25.89 27.87z" fill="currentColor" fill-rule="evenodd"/></svg>