<svg xmlns="http://www.w3.org/2000/svg" class="Icon IconStar" viewBox="0 0 22 23"><path fill="currentColor" d="m15.803 14.619 2.034 6.678a.968.968 0 0 1-.087 1.25.936.936 0 0 1-1.232.09l-5.066-5.014a1.168 1.168 0 0 0-.829-.35 1.153 1.153 0 0 0-.829.35L2.26 22.981a.947.947 0 0 1-.627-.082.968.968 0 0 1-.44-.46.99.99 0 0 1 .276-1.18l3.955-5.951c.471-.345-.244-2.296-.659-2.717L.263 7.788a.963.963 0 0 1-.12-1.192.944.944 0 0 1 .494-.388.928.928 0 0 1 .625.01l5.406 1.914a.928.928 0 0 0 1.027-.294.962.962 0 0 0 .178-.337L9.888.727a.966.966 0 0 1 .343-.648.937.937 0 0 1 1.332.135c.159.197.234.45.209.704l.621 7.31a.968.968 0 0 0 .4.703.934.934 0 0 0 .787.139l7.27-1.914a.947.947 0 0 1 .62.068.968.968 0 0 1 .449.44.99.99 0 0 1-.22 1.176l-5.651 4.612a1.01 1.01 0 0 0-.245 1.167Z"/></svg>