<svg xmlns="http://www.w3.org/2000/svg" aria-label="terminus" clip-rule="evenodd" fill-rule="evenodd" stroke-linejoin="round" stroke-miterlimit="2" viewBox="0 0 2499 453"><radialGradient id="terminus-a" cx="0" cy="0" gradientTransform="matrix(306.129 0 0 -332.571 186.223 201.178)" gradientUnits="userSpaceOnUse" r="1"><stop offset="0" stop-color="#7b7b87"/><stop offset=".29" stop-color="#7b7b87"/><stop offset=".58" stop-color="#7b7b87"/><stop offset="1" stop-color="#7b7b87"/></radialGradient><g fill-rule="nonzero"><path d="m182.917 230.063 81.666-28.333c2.917-.833 5.834.417 6.667 2.917.417.416.417 1.25.417 1.666v237.917c0 2.917-2.5 5.417-5.417 5.417h-81.667c-2.916 0-5.416-2.5-5.416-5.417v-209.583c0-2.084 1.666-4.167 3.75-4.584zm-182.917 66.25v148.334c0 2.916 2.5 5.416 5.417 5.416h80.833c2.917 0 5.417-2.5 5.417-5.416v-175.417c0-2.917-2.5-5.417-5.417-5.417-.417 0-1.25 0-1.667.417l-80.833 26.667c-2.083.833-3.75 2.916-3.75 5.416zm268.75-289.166 6.667 33.333-272.084 94.167c-2.083.833-3.333 2.916-3.333 5v70.833c0 2.917 2.5 5.417 5.417 5.417.416 0 1.25 0 1.666-.417l287.5-99.167 6.25 27.084c.834 2.916 3.334 4.583 6.25 3.75.834-.417 2.084-.834 2.5-1.667l102.5-110.417c2.084-2.083 1.667-5.416-.416-7.5-.834-.833-1.667-1.25-2.5-1.25l-134.584-26.25c-2.916-.416-5.416 1.25-6.25 4.167.417 1.25.417 2.083.417 2.917z" fill="url(#terminus-a)"/><path d="m873.75 344.23h-168.75c-2.083 0-3.75 1.667-3.75 3.75v.833c5.833 28.334 32.083 47.917 60.833 45 13.334 1.667 27.084-2.5 37.084-11.666 1.25-1.25 2.916-2.084 4.583-2.084h62.083c3.334 0 6.25 2.917 6.25 6.25 0 .834 0 1.667-.416 2.5-18.75 40.417-59.584 63.75-110 63.75-70.834.417-128.334-56.25-129.167-127.083-.417-70 55-127.083 125-128.75 82.083 0 132.083 60.417 122.5 142.083-.417 2.917-3.333 5.417-6.25 5.417zm-172.083-45.417h110.833c-3.333-31.25-23.333-45.416-54.583-45.416-27.5-1.25-51.667 18.333-56.25 45.416zm378.333-91.25c0-3.333-2.917-6.25-6.667-6.25-29.583 0-57.916 11.667-79.583 32.084v-21.667c0-3.333-2.917-6.25-6.25-6.25h-54.167c-3.333 0-6.25 2.917-6.25 6.25v231.25c0 3.333 2.917 6.25 6.25 6.25h54.167c3.333 0 6.25-2.917 6.25-6.25v-140c0-.833.417-1.667.833-2.5 20.834-21.667 49.584-34.583 79.584-35.417 3.333-.416 5.833-2.916 5.833-6.25zm445.833 106.25c0-73.75-46.25-114.166-112.083-114.583-30.417-.833-59.583 10.417-82.083 30.833-20.417-20.833-48.75-32.083-77.917-30.833-23.333-.833-46.667 7.083-64.167 22.5v-10c0-3.333-2.916-6.25-6.25-6.25h-54.166c-3.334 0-6.25 2.917-6.25 6.25v231.25c0 3.333 2.916 6.25 6.25 6.25h54.166c3.334 0 6.25-2.917 6.25-6.25v-140c0-10.833 5-21.25 13.334-28.333 12.083-9.584 27.083-15 42.083-14.584 25.417 0 45.417 12.084 45.417 49.584v133.333c0 3.333 2.916 6.25 6.25 6.25h54.166c3.334 0 6.25-2.917 6.25-6.25v-142.917c-.416-11.25 4.584-22.083 13.75-28.75 11.25-7.5 24.584-11.666 37.917-11.25 22.5-2.5 42.917 12.5 47.5 34.584 1.25 6.25 2.083 12.5 2.083 18.75v129.166c0 3.334 2.917 6.25 6.25 6.25h54.167c3.333 0 6.25-2.916 6.25-6.25zm47.917-182.5c-2.083-22.5 14.583-42.083 37.083-43.75h5c20.834 0 37.917 16.25 39.584 37.084 1.25 22.083-15.834 41.25-37.917 42.083h-2.917c-20.833.417-38.75-15-40.833-35.417zm74.167 80.417v231.25c0 3.333-2.917 6.25-6.25 6.25h-54.167c-3.333 0-6.25-2.917-6.25-6.25v-231.25c0-3.333 2.917-6.25 6.25-6.25h54.167c3.333 0 6.25 2.917 6.25 6.25zm300.416 105.417v125.833c0 3.333-2.916 6.25-6.25 6.25h-54.166c-3.334 0-6.25-2.917-6.25-6.25v-122.083c0-40-20-60.834-55-60.834-4.584 0-9.584.834-14.167 2.084-25 7.5-42.5 30.416-42.083 56.666v124.167c0 3.333-2.917 6.25-6.25 6.25h-54.167c-3.333 0-6.25-2.917-6.25-6.25v-231.25c0-3.333 2.917-6.25 6.25-6.25h54.167c3.333 0 6.25 2.917 6.25 6.25v12.083c20-16.25 44.583-25 70.416-24.583 64.584.417 107.5 46.25 107.5 117.917zm287.917-108.334v231.25c0 3.334-2.917 6.25-6.25 6.25h-54.167c-3.333 0-6.25-2.916-6.25-6.25v-12.916c-20 16.25-44.583 25.416-70.416 25.416-65 0-107.917-47.5-107.917-119.166v-124.584c0-3.333 2.917-6.25 6.25-6.25h54.167c3.333 0 6.25 2.917 6.25 6.25v120.417c0 40 20 62.5 55 62.5 4.583 0 9.583-.833 14.166-2.083 25-7.5 42.5-30.834 42.084-57.084v-123.75c0-3.333 2.916-6.25 6.25-6.25h54.166c3.75 0 6.667 2.917 6.667 6.25zm156.25 189.584c25.833 0 43.333-6.667 43.333-20.417 0-9.583-8.333-17.917-25-20.833l-52.5-9.167c-35.833-6.25-72.083-25.417-72.083-71.667 0-50 42.5-80.416 104.167-80.416 42.5 0 98.333 11.25 107.083 75 .417 3.333-2.083 6.666-5.417 7.083h-50.416c-2.917 0-5.417-2.083-6.25-5-4.167-18.333-23.75-24.583-45.417-24.583-25.833 0-37.917 8.75-37.917 20.416 0 9.167 6.667 20 30 24.167l43.75 7.083c37.917 6.667 72.917 24.167 72.917 71.25 0 54.167-47.083 80.834-108.75 80.834-51.667 0-104.167-18.75-112.083-83.75-.417-3.334 2.083-6.667 5.416-7.084h.834l49.583.417c2.917 0 5.417 2.083 6.25 5 6.667 24.167 25.833 31.667 52.5 31.667zm-1780.42 40c0 .416.417.833.417.833 0 1.667-.833 2.917-2.5 3.75-17.917 6.667-36.667 10-55.833 9.583-65.417 0-102.084-40.833-102.084-103.333v-90.417h-37.5c-3.333 0-6.25-2.916-6.25-6.25v-45c0-3.333 2.917-6.25 6.25-6.25h37.5l67.084-72.083v72.083h74.583c3.333 0 6.25 2.917 6.25 6.25v45c0 3.334-2.917 6.25-6.25 6.25h-74.583v90.417c-2.084 20.833 12.916 39.583 34.166 41.667 2.917.416 5.834.416 9.167 0 9.583-.417 19.167-1.667 28.333-4.584.417 0 1.25-.416 1.667 0 2.083.417 3.75 1.667 4.167 3.75z" fill="#7b7b87"/></g></svg>