<svg xmlns="http://www.w3.org/2000/svg" aria-label="Zendesk" role="img" viewBox="0 0 221.51 42.41"><g><g><path d="M147.32 36.63a11.09 11.09 0 0 0 7.9-3.07l3.92 4.22c-2.59 2.66-6.17 4.63-11.75 4.63-9.56 0-15.73-6.34-15.73-14.92A14.63 14.63 0 0 1 146 12.57h.53c9.49 0 14.87 7.22 14.4 17.24h-22.46c.8 4.16 3.72 6.81 8.83 6.81M154.14 25c-.6-3.88-2.92-6.74-7.57-6.74a7.71 7.71 0 0 0-8.1 6.74ZM0 36.32l17.27-17.54H.41v-5.5h24.86v5.62L8 36.43h17.5v5.51H0v-5.62zM44.89 36.63a11.09 11.09 0 0 0 7.9-3.07l3.92 4.22c-2.59 2.66-6.17 4.63-11.75 4.63-9.56 0-15.73-6.34-15.73-14.92a14.63 14.63 0 0 1 14.34-14.92h.53c9.49 0 14.87 7.22 14.4 17.24H36.06c.8 4.16 3.72 6.81 8.83 6.81M51.73 25c-.6-3.88-2.92-6.74-7.57-6.74a7.71 7.71 0 0 0-8.1 6.74ZM95.77 27.52c0-9.17 6.85-14.9 14.39-14.9a12.4 12.4 0 0 1 9.55 4.3V0h6.1v41.84h-6.1v-4a12.26 12.26 0 0 1-9.61 4.53 14.45 14.45 0 0 1-14.34-14.56v-.34m24.29-.06a9.2 9.2 0 1 0 0 .29v-.29M164.88 35.77l5.52-2.87a8.21 8.21 0 0 0 7.37 4.18c3.45 0 5.24-1.77 5.24-3.78 0-2.29-3.34-2.81-7-3.55-4.89-1-10-2.64-10-8.54 0-4.53 4.31-8.71 11.11-8.66 5.35 0 9.32 2.12 11.57 5.56l-5.12 2.81a7.44 7.44 0 0 0-6.45-3.27c-3.28 0-5 1.61-5 3.44 0 2.06 2.65 2.64 6.79 3.55 4.72 1 10.07 2.58 10.07 8.54 0 4-3.45 9.29-11.63 9.23-6 0-10.19-2.41-12.6-6.65M205.68 29.12l-4.84 5.28v7.45h-6.1V0h6.1v27.4l12.95-14.21h7.43l-11.23 12.27 11.52 16.39h-6.91l-8.92-12.73zM77.32 12.61c-7.25 0-13.32 4.7-13.32 12.5v16.73h6.22v-16c0-4.7 2.7-7.51 7.31-7.51s6.91 2.81 6.91 7.51v16h6.22V25.11c0-7.8-6.07-12.5-13.32-12.5" fill="currentColor"/></g></g></svg>